<svg version="1.1" id="Layer_1" xmlns="http://www.w3.org/2000/svg" xmlns:xlink="http://www.w3.org/1999/xlink" x="0px" y="0px"
	 width="100%" viewBox="0 0 1759 785" enable-background="new 0 0 1759 785" xml:space="preserve">
<path fill="#31A9E2" opacity="1.000000" stroke="none" 
	d="
M1100.000000,786.000000 
	C733.333313,786.000000 367.166656,786.000000 1.000000,786.000000 
	C1.000000,524.333313 1.000000,262.666656 1.000000,1.000000 
	C587.333313,1.000000 1173.666626,1.000000 1760.000000,1.000000 
	C1760.000000,262.666656 1760.000000,524.333313 1760.000000,786.000000 
	C1540.166626,786.000000 1320.333374,786.000000 1100.000000,786.000000 
M791.516235,354.230072 
	C791.516235,354.230072 791.877502,354.365417 792.352478,354.807922 
	C793.884583,354.451782 795.416626,354.095612 797.672974,353.951416 
	C799.815552,353.464294 803.334717,353.571808 803.848999,352.381287 
	C805.559998,348.420135 801.673767,347.789642 799.811157,346.642365 
	C798.256714,347.754669 797.116699,348.570465 795.187744,349.084930 
	C794.125000,349.294861 793.062256,349.504791 791.050964,349.715576 
	C787.638428,349.639343 784.225952,349.557983 780.813293,349.488068 
	C775.323486,349.375671 775.323425,349.378815 776.277588,355.241608 
	C777.993652,354.992493 779.780640,354.318939 781.416687,354.582520 
	C784.736816,355.117401 788.097473,356.552521 789.673218,351.930389 
	C790.142456,352.337921 790.611633,352.745483 791.167786,353.646515 
	C791.277832,353.771729 791.387939,353.896973 791.516235,354.230072 
M944.478943,350.511627 
	C942.272522,349.407990 940.066040,348.304382 937.589111,347.065460 
	C937.589111,349.251648 937.589111,351.980316 937.589111,354.872925 
	C941.200867,354.842102 944.880188,355.180695 944.945007,349.793365 
	C944.945007,349.793365 945.332092,349.846191 945.332092,349.846191 
	C945.332092,349.846191 945.009277,349.985901 944.478943,350.511627 
M981.195374,286.287292 
	C979.796692,286.526855 978.398010,286.766449 976.675537,287.491028 
	C976.495911,288.277435 976.316223,289.063812 975.947998,290.675934 
	C974.986328,288.808044 974.376343,287.623169 974.059631,287.007996 
	C970.834778,286.827545 968.211487,286.680756 965.288696,286.517212 
	C965.288696,291.181091 965.288696,295.899261 965.288696,300.750000 
	C967.162720,300.750000 968.740662,300.750000 970.254944,300.750000 
	C972.145813,297.391998 968.183655,290.699280 976.198059,291.137512 
	C976.478577,294.410309 976.744263,297.509796 977.794617,300.925568 
	C979.184387,300.826965 980.574097,300.728333 982.337708,299.968506 
	C982.205750,295.569641 982.073853,291.170807 981.195374,286.287292 
M922.068359,349.166931 
	C922.068359,349.166931 922.031677,349.433258 921.199280,349.516052 
	C918.509155,348.841705 915.818970,348.167358 912.454834,347.324097 
	C912.115295,347.573822 910.821655,348.417877 909.652649,349.408966 
	C907.525818,351.211945 907.861694,354.692200 910.317383,354.814362 
	C914.192871,355.007141 918.116150,354.237976 922.766968,354.231445 
	C930.587158,356.292877 931.704773,355.707428 933.889343,349.509705 
	C930.535889,349.079987 926.768738,348.597260 922.600220,348.247681 
	C922.355286,348.436432 922.246277,348.684814 922.068359,349.166931 
M820.950684,353.893829 
	C820.950684,353.893829 820.961426,353.718048 821.730347,353.424255 
	C826.093628,355.950684 828.944153,355.482117 831.750610,351.371521 
	C831.879639,358.241486 836.339417,352.849060 838.409973,354.807434 
	C839.309082,350.481476 838.227173,348.636536 833.974670,348.990356 
	C829.329895,349.376770 824.644470,349.275208 819.260193,349.087616 
	C817.616638,349.442719 815.973083,349.797791 814.310181,350.157074 
	C814.048157,349.132599 813.711121,347.814911 813.338623,346.358704 
	C811.729614,347.502411 810.220886,348.183075 809.314331,349.336914 
	C808.516235,350.352692 807.789734,352.105591 808.149536,353.146484 
	C808.468750,354.069733 810.283508,354.877838 811.511536,355.000183 
	C813.976562,355.245758 816.491760,354.988831 819.548157,354.967285 
	C819.961426,354.632019 820.374695,354.296753 820.950684,353.893829 
M891.616211,354.958710 
	C892.041931,355.939240 892.467590,356.919769 892.927979,357.980133 
	C894.943848,356.511475 896.641174,355.274841 898.379761,354.008179 
	C899.054016,355.686249 899.503296,356.804321 900.000610,358.041992 
	C901.706543,356.663391 903.735596,355.808319 904.231201,354.409821 
	C904.762451,352.910797 903.822449,349.340973 903.572815,349.345520 
	C899.356079,349.421692 895.146790,349.914825 890.630310,349.681671 
	C889.310608,349.417297 887.990845,349.152893 886.488647,348.851959 
	C886.337769,351.114502 886.226440,352.784180 886.074036,355.070770 
	C887.933655,354.895203 889.448669,354.752167 891.616211,354.958710 
M826.289917,280.361938 
	C826.041687,282.611084 825.793396,284.860260 825.498901,287.528259 
	C824.119385,286.989227 823.135864,286.399872 822.084900,286.231293 
	C818.358521,285.633514 814.091614,285.302795 812.476257,289.293243 
	C811.396423,291.960846 811.397949,296.072144 812.765747,298.491333 
	C814.871277,302.215302 819.146362,301.983429 823.054993,300.675049 
	C824.036011,300.346649 825.068115,300.170929 826.482544,300.744354 
	C828.067749,300.744354 829.653015,300.744354 831.759155,300.744354 
	C831.759155,298.073059 831.603455,295.768524 831.835938,293.503906 
	C831.929077,292.597321 832.877136,291.778534 833.436096,290.919739 
	C834.255127,291.721069 835.656677,292.441986 835.780579,293.339294 
	C836.111328,295.735260 835.893127,298.207001 835.893127,301.040009 
	C838.072998,300.901978 839.606812,300.804840 841.072632,300.712006 
	C842.217041,285.832031 841.170837,286.177460 832.047424,285.719360 
	C831.854919,284.010406 831.656494,282.249542 831.420105,280.151154 
	C829.841248,280.151154 828.412537,280.151154 826.289917,280.361938 
M949.355835,466.333649 
	C949.548157,456.585388 949.831177,446.837646 949.885437,437.088593 
	C949.905457,433.492767 949.385986,429.893890 948.438171,425.744537 
	C946.997620,425.501953 945.557129,425.048248 944.116455,425.047302 
	C888.414185,425.011353 832.711853,425.005402 777.009644,425.070526 
	C775.301758,425.072540 773.594788,425.870026 771.534180,426.966217 
	C771.379822,438.735504 771.186462,450.504578 771.117004,462.274384 
	C771.107544,463.872711 771.718201,465.474701 772.160522,467.167053 
	C772.160522,467.167053 772.072144,467.288635 772.230835,468.109222 
	C774.630066,469.018097 777.027161,470.713593 779.428894,470.720306 
	C833.421631,470.870880 887.414917,470.836151 941.408081,470.834137 
	C942.574402,470.834106 943.961548,471.204041 944.857788,470.704926 
	C946.377319,469.858612 947.587219,468.456177 948.839661,467.166199 
	C948.839661,467.166199 948.958313,467.075012 949.355835,466.333649 
M825.552124,170.078964 
	C815.688232,173.118149 811.513306,178.512039 812.184692,188.793304 
	C812.431702,192.575607 813.702271,196.725876 815.781860,199.862259 
	C819.974670,206.185608 827.213013,205.987839 835.443237,206.096390 
	C833.360840,208.054886 832.417114,209.724411 831.377441,209.786469 
	C826.572571,210.073318 821.740967,209.913116 816.104492,209.913116 
	C815.425720,211.540558 814.249817,214.359909 812.434204,218.712982 
	C819.633240,219.557343 825.769592,220.844849 831.910034,220.864471 
	C841.164124,220.894058 847.455017,214.311752 847.685791,205.057053 
	C847.880493,197.247131 847.730774,189.428635 847.732788,181.613922 
	C847.733704,178.192383 847.732910,174.770844 847.732910,170.933609 
	C843.761597,171.232056 840.589417,171.795273 837.458069,171.621704 
	C833.732849,171.415207 830.042786,170.575912 825.552124,170.078964 
M888.442993,174.010025 
	C888.763733,170.484650 886.162781,170.620544 884.164673,171.121170 
	C880.870056,171.946609 878.061707,171.276672 874.826477,170.435379 
	C868.250427,168.725327 861.676270,169.798035 857.031433,175.353073 
	C851.696106,181.733963 851.700256,189.265366 854.520630,196.597122 
	C857.094788,203.288986 862.996826,205.575241 869.751526,205.951706 
	C871.441040,206.045883 873.140259,205.965790 874.835022,205.965790 
	C874.281982,208.019257 873.324036,209.685593 872.270264,209.748566 
	C867.451355,210.036591 862.605652,209.875107 856.978943,209.875107 
	C856.274597,211.527771 855.077393,214.336899 853.244446,218.637726 
	C860.169617,219.520966 865.982605,220.788422 871.815918,220.889893 
	C881.982788,221.066772 888.314270,214.544678 888.430298,204.413834 
	C888.542847,194.583603 888.453979,184.751083 888.442993,174.010025 
M786.462219,170.024475 
	C785.654541,170.199219 784.826660,170.309998 784.042297,170.558411 
	C774.091309,173.709976 769.611816,181.049011 771.114868,191.701126 
	C772.343567,200.409714 779.639893,205.953796 789.897156,205.972702 
	C800.409912,205.992081 807.998108,200.277191 809.506104,191.204666 
	C811.739441,177.767715 802.610901,169.059418 786.462219,170.024475 
M960.453918,216.125198 
	C961.455688,220.399017 963.905396,220.655289 967.447327,218.911041 
	C972.714478,216.317154 976.848816,212.879745 978.930481,207.103226 
	C981.635071,199.598160 984.733765,192.235519 987.636719,184.801376 
	C989.362549,180.381744 991.038147,175.942490 992.938354,170.985016 
	C989.886719,170.985016 987.531311,171.254654 985.262573,170.925842 
	C981.217529,170.339584 979.230652,171.912872 978.247314,175.842499 
	C977.211182,179.982697 975.564880,183.970169 974.185120,188.024368 
	C973.829651,187.933823 973.474182,187.843277 973.118713,187.752731 
	C971.039429,181.849716 968.960144,175.946701 966.756592,169.690918 
	C962.585083,170.888077 958.845703,171.961227 954.787415,173.125916 
	C958.005859,181.376495 961.122131,189.054550 963.998779,196.821365 
	C967.319641,205.787628 969.537781,204.760498 959.074036,210.081070 
	C958.809631,210.215546 958.654724,210.565475 958.351440,210.932755 
	C958.938965,212.406204 959.550903,213.940842 960.453918,216.125198 
M951.458557,193.479462 
	C951.289185,188.670486 951.509094,183.807495 950.850891,179.066376 
	C950.047791,173.281250 945.928467,169.726700 940.141357,170.126862 
	C935.138062,170.472809 930.214783,171.975067 926.261230,172.765289 
	C922.392090,171.931839 919.134827,171.230194 915.397949,170.425232 
	C915.397949,182.480804 915.397949,193.509232 915.397949,204.584656 
	C919.741760,204.584656 923.763489,204.584656 927.991577,204.584656 
	C927.991577,198.349792 927.976196,192.538727 927.996521,186.727798 
	C928.011780,182.366730 930.303833,180.111313 934.644836,180.386108 
	C938.543518,180.632874 938.165100,183.639496 938.169800,186.303375 
	C938.180542,192.399124 938.173218,198.494904 938.173218,204.682755 
	C942.907349,204.682755 946.957581,204.682755 951.458069,204.682755 
	C951.458069,201.064178 951.458069,197.761658 951.458557,193.479462 
M766.458557,189.565399 
	C766.377930,186.577240 766.531860,183.560364 766.170166,180.606628 
	C765.290955,173.426849 761.324585,169.662582 754.218994,170.125198 
	C749.544922,170.429520 744.954468,172.017365 741.674744,172.735321 
	C737.363770,171.909714 734.002869,171.266052 730.372559,170.570801 
	C730.372559,182.688675 730.372559,193.587143 730.372559,204.611877 
	C734.688110,204.611877 738.708130,204.611877 742.993164,204.611877 
	C742.993164,198.079300 743.242737,191.929337 742.917297,185.809967 
	C742.637329,180.545410 746.688293,180.839188 749.590820,180.506058 
	C753.030701,180.111252 753.192139,183.094437 753.180847,185.731720 
	C753.154053,191.998688 753.172180,198.265823 753.172180,204.714905 
	C757.862549,204.714905 761.916382,204.714905 766.458008,204.714905 
	C766.458008,199.798340 766.458008,195.170258 766.458557,189.565399 
M796.218262,301.087585 
	C797.990112,300.963776 799.761963,300.839996 801.764526,300.700073 
	C801.764526,293.776703 801.764526,287.030457 801.764526,279.869507 
	C799.822266,280.013428 798.128357,280.138947 796.399780,280.267029 
	C796.190002,282.367981 796.029419,283.977173 795.868774,285.586334 
	C795.581604,285.300995 795.294495,285.015656 795.007385,284.730316 
	C791.817810,286.811676 788.628296,288.893066 785.426697,290.982300 
	C783.320557,280.667755 774.846375,289.637756 769.706848,285.254150 
	C769.706848,291.203247 769.706848,295.905548 769.706848,300.816650 
	C771.517517,300.816650 773.135376,300.816650 775.336426,300.816650 
	C775.336426,298.163269 775.167358,295.689087 775.429688,293.261505 
	C775.519531,292.430603 776.690613,291.716522 777.367676,290.949066 
	C777.994629,291.739044 779.076599,292.482910 779.162292,293.327820 
	C779.407532,295.746552 779.248535,298.206268 779.248535,300.810364 
	C781.574158,300.810364 783.185364,300.810364 784.764526,300.810364 
	C785.171448,299.359802 785.520508,298.115509 785.573853,297.925262 
	C788.993774,299.089661 792.205627,300.183197 796.218262,301.087585 
M901.517883,170.985001 
	C899.602478,170.985001 897.687134,170.985001 895.737061,170.985001 
	C895.737061,182.712189 895.737061,193.713089 895.737061,204.759094 
	C900.085754,204.759094 904.010681,204.759094 908.469849,204.759094 
	C908.469849,194.918304 908.481567,185.324326 908.457397,175.730438 
	C908.453674,174.268753 908.283875,172.807510 908.167908,170.985001 
	C906.059998,170.985001 904.251892,170.985001 901.517883,170.985001 
M712.454895,289.881165 
	C711.741821,288.646790 711.082886,286.392151 710.306458,286.350922 
	C706.521362,286.149872 702.704895,286.540344 698.595276,286.735962 
	C698.595276,291.286804 698.595276,295.872284 698.595276,300.702820 
	C700.519897,300.702820 702.230347,300.702820 704.574829,300.702820 
	C704.574829,296.384216 704.574829,292.380127 704.574829,288.376038 
	C704.986450,288.296173 705.398071,288.216339 705.809692,288.136475 
	C706.952026,290.981079 707.834534,293.972473 709.329224,296.618042 
	C710.305420,298.346039 711.930176,300.258667 713.688721,300.872009 
	C716.784485,301.951721 717.290833,298.998444 718.146179,296.863007 
	C719.519775,293.433472 720.986328,290.041199 722.413574,286.633209 
	C722.857239,286.737061 723.300964,286.840942 723.744629,286.944794 
	C723.744629,291.480194 723.744629,296.015594 723.744629,300.655212 
	C726.059509,300.655212 727.773193,300.655212 729.496948,300.655212 
	C729.496948,295.720459 729.496948,291.156464 729.496948,285.953705 
	C726.763428,286.361359 724.146912,287.590851 722.328369,286.853149 
	C718.171082,285.166840 716.109070,286.189758 714.957275,290.285339 
	C714.875610,290.575653 713.526184,290.509369 712.454895,289.881165 
M881.793518,286.201019 
	C877.784851,286.783813 878.507629,289.465668 879.857178,291.601807 
	C881.881287,294.805542 879.483276,301.193695 886.294128,300.929657 
	C887.151367,300.896423 888.081726,299.836823 888.763611,299.063507 
	C889.363464,298.383148 889.662537,297.437592 890.344727,296.129120 
	C891.054749,297.649506 891.385559,299.391876 892.010742,299.504822 
	C893.985291,299.861542 897.474609,300.293976 897.874817,299.474609 
	C899.848389,295.434082 901.014709,290.999268 902.430969,286.806976 
	C897.120300,284.577850 896.225464,288.122681 895.420105,290.634460 
	C893.625305,289.022552 891.702148,286.163483 890.456665,286.433289 
	C888.420044,286.874512 886.824707,289.352753 885.425293,290.624481 
	C884.683533,289.469788 883.601440,287.785217 881.793518,286.201019 
M1027.396973,301.252014 
	C1029.467896,301.036041 1031.538818,300.820068 1033.639893,300.600952 
	C1033.639893,293.588135 1033.639893,286.863068 1033.639893,279.877197 
	C1031.703369,279.992828 1030.099243,280.088623 1028.412720,280.189331 
	C1028.149902,282.208099 1027.921753,283.960876 1027.704346,285.631470 
	C1020.932373,286.479523 1018.676392,288.487640 1018.577515,293.514984 
	C1018.478027,298.567932 1020.542358,300.602966 1027.396973,301.252014 
M926.293213,296.220032 
	C926.380798,297.685394 926.468384,299.150787 926.556885,300.631348 
	C928.588623,300.631348 930.291199,300.631348 932.332703,300.631348 
	C932.332703,297.926270 932.157410,295.587128 932.423828,293.299408 
	C932.522522,292.451965 933.658508,291.725281 934.321411,290.943512 
	C934.962097,291.720032 936.069702,292.448669 936.155151,293.282166 
	C936.403870,295.707336 936.243408,298.174469 936.243408,301.015594 
	C938.517639,300.915680 940.082825,300.846924 941.582214,300.781036 
	C943.090515,287.659302 942.870239,287.289764 932.602417,285.411346 
	C932.376648,283.682648 932.145996,281.916473 931.882996,279.902557 
	C930.060669,280.001984 928.449890,280.089874 926.983582,280.169891 
	C926.703918,280.737366 926.442993,281.022736 926.438782,281.311890 
	C926.370850,285.968079 926.335571,290.624786 926.293213,296.220032 
M995.527100,286.496338 
	C991.330322,285.337189 987.098633,285.442993 985.300232,289.895142 
	C984.339661,292.273010 984.382874,296.780701 985.886536,298.037079 
	C988.315796,300.066803 992.286499,300.768921 995.675110,300.993927 
	C999.375366,301.239563 999.792114,299.052338 997.822021,296.683777 
	C995.514771,296.556274 993.599670,296.450409 991.684509,296.344543 
	C991.703613,295.960632 991.722717,295.576721 991.741821,295.192810 
	C994.164856,295.059174 996.587952,294.925507 1000.449097,294.712524 
	C998.706177,291.530243 997.446228,289.229889 995.527100,286.496338 
M1011.246033,300.047699 
	C1012.984985,300.415253 1014.723938,300.782776 1016.911865,301.245178 
	C1016.911865,297.315826 1017.030090,294.341248 1016.882507,291.379913 
	C1016.691589,287.548889 1014.621399,285.645264 1010.698059,285.984955 
	C1007.697632,286.244720 1004.697998,286.513733 1001.395691,286.805328 
	C1001.395691,291.244293 1001.395691,295.961334 1001.395691,300.725403 
	C1003.320679,300.725403 1004.901917,300.725403 1006.971313,300.725403 
	C1006.971313,298.154236 1006.767822,295.837189 1007.067139,293.587036 
	C1007.194702,292.628143 1008.373291,291.809082 1009.074341,290.926514 
	C1009.731750,291.842712 1010.777344,292.687836 1010.960938,293.690765 
	C1011.285278,295.462097 1011.084534,297.329559 1011.246033,300.047699 
M958.584839,293.694702 
	C963.606689,288.341431 963.606689,288.341431 959.215820,285.929993 
	C960.684753,284.665985 962.287109,283.287170 963.889526,281.908356 
	C963.632446,281.262573 963.375427,280.616791 963.118347,279.971008 
	C960.519958,280.297699 957.208313,279.755157 955.495239,281.160797 
	C953.102173,283.124481 950.631042,286.488129 950.508972,289.351440 
	C950.351501,293.045135 952.482056,296.836365 953.674072,300.739166 
	C954.875244,300.739166 956.459534,300.739166 958.526367,300.739166 
	C958.526367,298.500946 958.526367,296.538605 958.584839,293.694702 
M756.008423,291.527008 
	C755.455261,294.067871 754.475037,296.628418 754.590637,299.138489 
	C754.628784,299.967621 757.462769,301.206482 759.073792,301.299561 
	C761.539551,301.441986 764.053345,300.753418 766.866699,300.374481 
	C766.866699,297.771027 766.875488,295.121857 766.860413,292.472839 
	C766.856689,291.809509 766.861206,291.127563 766.717102,290.486694 
	C765.820557,286.499695 762.116211,284.928436 757.041382,286.129639 
	C753.727600,286.913910 754.305847,288.743896 756.008423,291.527008 
M850.403870,285.973907 
	C848.377869,286.304016 846.351868,286.634125 844.325867,286.964233 
	C844.729126,287.308807 845.132385,287.653381 845.535706,287.997986 
	C845.013306,290.198608 844.639893,292.448303 843.934875,294.588806 
	C842.766174,298.137390 845.067078,301.550934 848.846069,301.388977 
	C851.379578,301.280396 853.898010,300.822662 856.863892,300.468506 
	C856.863892,297.784882 856.919067,294.983002 856.850220,292.184143 
	C856.760681,288.545563 855.234375,286.123169 850.403870,285.973907 
M740.982300,286.080170 
	C738.277100,286.274628 735.571960,286.469055 732.148499,286.715118 
	C733.180176,289.075439 733.797180,290.486877 734.414124,291.898346 
	C733.009949,294.146393 732.148071,296.701935 732.785034,298.803009 
	C733.160034,300.039764 735.863220,301.095428 737.611267,301.260895 
	C739.900452,301.477570 742.280457,300.734985 744.606995,300.407074 
	C745.737183,290.665558 745.493225,289.451172 740.982300,286.080170 
M673.329346,292.745056 
	C674.326477,300.858276 677.252258,302.877838 684.965027,299.904144 
	C683.872375,298.673309 682.952576,297.609833 682.001831,296.574799 
	C681.228027,295.732422 679.798950,294.925598 679.796997,294.100403 
	C679.795044,293.278564 681.511780,292.581451 681.927551,291.598175 
	C682.483276,290.284149 683.193604,288.323151 682.618530,287.397095 
	C681.543213,285.665619 679.590576,284.479004 677.505554,282.622864 
	C672.623901,283.305176 670.111511,287.635651 673.329346,292.745056 
M868.970459,287.049377 
	C867.594910,285.616333 866.219299,284.183258 864.483765,282.375214 
	C860.254822,281.309967 858.614441,286.255249 858.648743,288.328308 
	C858.712830,292.202881 860.477051,296.538635 862.854126,299.684998 
	C864.095154,301.327698 868.144226,300.848846 870.924988,301.328217 
	C871.148987,300.709015 871.372986,300.089783 871.596985,299.470551 
	C870.717346,298.503052 869.869385,297.504089 868.948608,296.577454 
	C868.136658,295.760406 866.635254,295.076569 866.562927,294.236908 
	C866.494995,293.450531 868.154785,292.649200 868.599060,291.651703 
	C869.193604,290.316528 869.349487,288.785950 868.970459,287.049377 
M922.436829,291.511230 
	C922.430298,290.085052 922.958435,288.303070 922.298645,287.311646 
	C921.158386,285.598236 919.280823,284.375458 916.936890,282.240173 
	C913.252869,281.334534 911.609497,286.256226 911.645691,288.342438 
	C911.713013,292.216370 913.485291,296.549133 915.865112,299.693817 
	C917.104675,301.331696 921.152283,300.844543 923.931519,301.317230 
	C924.187988,300.630524 924.444397,299.943817 924.700806,299.257080 
	C923.617188,298.366119 922.619934,297.332916 921.433044,296.612000 
	C918.396118,294.767548 917.880310,293.166077 922.436829,291.511230 
M1039.420410,286.390594 
	C1035.186157,290.113739 1035.252808,291.286804 1039.576172,295.319427 
	C1038.407715,296.584747 1037.238647,297.850739 1035.946777,299.249725 
	C1041.642578,302.307037 1047.005127,302.184479 1047.854736,298.786835 
	C1048.425781,296.503296 1046.630127,293.627991 1045.893433,291.017426 
	C1045.466919,291.238068 1045.040527,291.458710 1044.614136,291.679352 
	C1046.001831,290.518250 1047.389648,289.357178 1048.777466,288.196106 
	C1048.597534,287.661835 1048.417603,287.127563 1048.237793,286.593262 
	C1045.550903,286.439575 1042.864014,286.285858 1039.420410,286.390594 
M897.066895,154.446411 
	C894.488892,157.238800 893.866150,160.629318 896.295166,163.383606 
	C897.785400,165.073486 900.910583,166.482941 903.006409,166.151550 
	C905.111511,165.818695 907.996094,163.432510 908.445801,161.467209 
	C908.951904,159.255325 907.758118,155.938675 906.148987,154.129974 
	C903.859924,151.556976 900.516846,151.844696 897.066895,154.446411 
M866.181030,350.058746 
	C863.227478,349.778076 860.273987,349.497437 856.440369,349.133148 
	C857.538330,351.427002 858.031921,353.444000 859.306030,354.602783 
	C859.772461,355.026978 862.090210,353.415466 863.757996,352.642426 
	C866.860291,352.689941 870.283264,358.600464 873.064087,353.539490 
	C875.921997,354.150818 878.420776,354.685303 881.148804,355.268860 
	C881.902771,352.883057 882.429626,351.216034 883.154541,348.922211 
	C877.347168,349.242706 872.214600,349.525970 866.181030,350.058746 
M692.273682,298.068054 
	C692.031372,294.593292 692.039673,291.252838 696.717834,290.517334 
	C696.268433,288.997620 695.907654,287.777496 695.622131,286.811890 
	C692.443054,286.811890 689.649719,286.811890 686.574829,286.811890 
	C686.574829,291.280548 686.574829,295.872375 686.574829,302.071808 
	C688.941040,300.757416 690.593811,299.839355 692.273682,298.068054 
M909.957214,289.814728 
	C910.286621,284.976135 907.307861,286.086426 904.344604,286.507294 
	C904.344604,291.383789 904.344604,295.960236 904.344604,300.591553 
	C906.317505,300.591553 908.000061,300.591553 909.958435,300.591553 
	C909.958435,297.027527 909.958435,293.880280 909.957214,289.814728 
M844.953430,348.551147 
	C841.723755,346.818451 841.320496,348.589844 841.603516,351.242371 
	C842.289062,357.666687 847.521667,353.855652 850.522400,354.986877 
	C851.185181,355.236755 852.710144,353.199402 853.838135,352.215271 
	C852.642334,351.131256 851.608948,349.631439 850.204102,349.082703 
	C848.855957,348.556122 847.122620,349.015564 844.953430,348.551147 
M905.552856,284.137207 
	C907.000732,283.530121 908.557068,283.076569 909.808960,282.192047 
	C910.072998,282.005554 909.516052,279.746094 908.809998,279.323883 
	C907.890564,278.774109 905.469177,278.823303 905.388306,279.103546 
	C904.960632,280.585693 905.065002,282.221313 905.552856,284.137207 
M982.295349,280.180023 
	C980.754333,279.800537 979.205750,279.168701 977.677307,279.214020 
	C977.281372,279.225739 976.406311,281.555908 976.736694,282.461823 
	C977.076965,283.394928 979.184448,284.682434 979.534912,284.432983 
	C980.780823,283.545868 981.607544,282.069824 982.295349,280.180023 
M701.356140,278.393799 
	C700.317322,279.604950 699.056152,280.710938 698.398193,282.102203 
	C698.236450,282.444122 699.970398,284.274933 700.964294,284.403229 
	C701.943604,284.529663 704.064880,283.171295 703.991272,282.800507 
	C703.694824,281.306366 702.743103,279.942261 701.356140,278.393799 
M723.914612,281.494476 
	C725.079773,282.510284 726.138550,283.752960 727.484192,284.383942 
	C727.824524,284.543488 729.647034,282.813782 729.754761,281.838165 
	C729.861084,280.874298 728.501709,278.821259 728.060242,278.894867 
	C726.622009,279.134674 725.309326,280.128174 723.914612,281.494476 
z"/>
<path fill="#FEFEFD" opacity="1.000000" stroke="none" 
	d="
M771.887451,426.296661 
	C773.594788,425.870026 775.301758,425.072540 777.009644,425.070526 
	C832.711853,425.005402 888.414185,425.011353 944.116455,425.047302 
	C945.557129,425.048248 946.997620,425.501953 948.745972,426.454468 
	C949.022034,440.467926 948.990173,453.771484 948.958313,467.075012 
	C948.958313,467.075012 948.839661,467.166199 948.450317,467.421295 
	C946.741760,467.779938 945.422546,467.973724 944.103271,467.974091 
	C888.383911,467.989197 832.664490,467.992981 776.945129,467.957764 
	C775.320679,467.956757 773.696472,467.521423 772.072144,467.288635 
	C772.072144,467.288635 772.160522,467.167053 772.073608,466.643066 
	C771.953552,452.844910 771.920532,439.570801 771.887451,426.296661 
M798.699219,450.762939 
	C799.146851,448.474640 799.594421,446.186310 800.042053,443.898010 
	C798.150940,443.665100 796.260803,443.284119 794.368347,443.272308 
	C793.614929,443.267578 792.856506,444.079773 792.100403,444.520111 
	C792.701050,445.280182 793.319275,446.027191 793.897766,446.803802 
	C794.553345,447.683807 795.173279,448.590240 795.001831,449.758820 
	C791.436218,449.036316 787.870605,448.313782 784.305054,447.591248 
	C783.987549,447.930420 783.670044,448.269592 783.352539,448.608765 
	C785.456543,450.278900 787.414734,453.026123 789.702881,453.335846 
	C792.330994,453.691589 795.251343,451.888489 798.699219,450.762939 
M912.017639,444.468231 
	C911.600952,444.660492 910.921265,445.119904 910.805725,445.006195 
	C907.257751,441.513275 904.806946,442.499664 902.931030,446.738495 
	C902.577881,447.536591 901.652161,448.081268 901.389343,448.344116 
	C904.437805,449.414062 907.817810,453.634369 910.214905,450.001831 
	C913.876343,450.001831 916.389832,450.001831 918.903320,450.001831 
	C918.913086,449.680878 918.922852,449.359924 918.932617,449.039001 
	C920.571472,450.020172 922.210327,451.001373 924.999146,452.671082 
	C922.423462,452.671082 921.273804,452.671082 920.124207,452.671082 
	C921.386536,453.757385 923.515198,454.224121 923.668579,453.859680 
	C926.358643,447.466492 930.986755,448.843994 935.798340,450.606262 
	C934.553345,449.850891 933.308289,449.095490 932.063293,448.340088 
	C932.194641,448.012207 932.326050,447.684296 932.457397,447.356384 
	C934.022583,447.196716 935.587769,447.037018 937.360413,446.856171 
	C936.892517,443.291656 934.946472,441.827454 932.298401,443.539612 
	C930.202393,444.894714 929.133728,444.200928 927.067322,443.838104 
	C922.397400,443.018188 917.447510,443.792786 912.017639,444.468231 
M839.472229,454.040283 
	C844.360535,453.222870 844.993103,451.607025 843.681885,443.599823 
	C839.867371,443.393738 836.101746,443.056152 832.339783,443.092926 
	C831.523376,443.100891 830.090210,444.411835 830.040833,445.192322 
	C829.934875,446.866302 830.036560,449.581635 830.978027,450.063446 
	C832.567017,450.876617 834.874146,450.286499 836.879272,450.286499 
	C836.896362,449.870728 836.913513,449.454926 836.930603,449.039154 
	C838.571716,450.015533 840.212830,450.991882 841.656189,451.850586 
	C840.566406,452.610291 839.712830,453.205322 839.472229,454.040283 
M865.867004,444.582245 
	C865.447083,444.202240 865.027161,443.822266 863.934814,442.833801 
	C864.783997,446.099854 865.397644,448.460205 865.803894,450.022888 
	C867.762085,450.022888 869.123840,450.022888 870.977112,450.022888 
	C871.282288,449.506073 872.053894,448.199219 873.071655,446.475433 
	C873.823181,447.644043 874.240479,448.292969 874.657837,448.941895 
	C874.575745,446.853149 873.983582,444.854431 872.680176,443.587372 
	C872.128296,443.050781 870.081909,444.051544 868.714783,444.353577 
	C868.612610,444.116211 868.510437,443.878876 868.408264,443.641510 
	C867.648071,444.148621 866.887939,444.655731 865.867004,444.582245 
M790.009216,436.194977 
	C787.014099,437.324127 784.167236,438.587799 784.084167,442.714661 
	C788.726318,441.376526 793.130310,440.106995 797.534363,438.837494 
	C797.560303,438.384552 797.586182,437.931580 797.612122,437.478638 
	C795.340881,437.006348 793.069702,436.534058 790.009216,436.194977 
z"/>
<path fill="#F9FCFE" opacity="1.000000" stroke="none" 
	d="
M825.944824,170.044891 
	C830.042786,170.575912 833.732849,171.415207 837.458069,171.621704 
	C840.589417,171.795273 843.761597,171.232056 847.732910,170.933609 
	C847.732910,174.770844 847.733704,178.192383 847.732788,181.613922 
	C847.730774,189.428635 847.880493,197.247131 847.685791,205.057053 
	C847.455017,214.311752 841.164124,220.894058 831.910034,220.864471 
	C825.769592,220.844849 819.633240,219.557343 812.434204,218.712982 
	C814.249817,214.359909 815.425720,211.540558 816.104492,209.913116 
	C821.740967,209.913116 826.572571,210.073318 831.377441,209.786469 
	C832.417114,209.724411 833.360840,208.054886 835.443237,206.096390 
	C827.213013,205.987839 819.974670,206.185608 815.781860,199.862259 
	C813.702271,196.725876 812.431702,192.575607 812.184692,188.793304 
	C811.513306,178.512039 815.688232,173.118149 825.944824,170.044891 
M830.889343,179.958466 
	C825.725098,182.024689 823.531799,189.950760 827.338318,193.790405 
	C828.519104,194.981415 830.831299,195.452606 832.610962,195.421341 
	C833.201599,195.410965 834.090332,192.831680 834.236877,191.366257 
	C834.500183,188.733459 834.569458,186.016037 834.186890,183.412262 
	C834.004578,182.171448 832.598755,181.110428 830.889343,179.958466 
z"/>
<path fill="#FBFEFE" opacity="1.000000" stroke="none" 
	d="
M888.448303,174.464798 
	C888.453979,184.751083 888.542847,194.583603 888.430298,204.413834 
	C888.314270,214.544678 881.982788,221.066772 871.815918,220.889893 
	C865.982605,220.788422 860.169617,219.520966 853.244446,218.637726 
	C855.077393,214.336899 856.274597,211.527771 856.978943,209.875107 
	C862.605652,209.875107 867.451355,210.036591 872.270264,209.748566 
	C873.324036,209.685593 874.281982,208.019257 874.835022,205.965790 
	C873.140259,205.965790 871.441040,206.045883 869.751526,205.951706 
	C862.996826,205.575241 857.094788,203.288986 854.520630,196.597122 
	C851.700256,189.265366 851.696106,181.733963 857.031433,175.353073 
	C861.676270,169.798035 868.250427,168.725327 874.826477,170.435379 
	C878.061707,171.276672 880.870056,171.946609 884.164673,171.121170 
	C886.162781,170.620544 888.763733,170.484650 888.448303,174.464798 
M866.391052,186.815079 
	C866.851074,189.033737 866.795471,191.584396 867.940186,193.362106 
	C868.798767,194.695404 871.188477,195.531021 872.922974,195.576477 
	C873.636719,195.595200 874.865967,193.021835 875.072571,191.519119 
	C875.428894,188.927704 875.302002,186.241638 875.106628,183.615494 
	C875.020264,182.454910 874.454956,180.529327 873.784668,180.377823 
	C872.344116,180.052200 870.215088,180.123703 869.246765,181.001816 
	C867.916992,182.207825 867.401733,184.311981 866.391052,186.815079 
z"/>
<path fill="#FBFEFE" opacity="1.000000" stroke="none" 
	d="
M786.864746,170.007019 
	C802.610901,169.059418 811.739441,177.767715 809.506104,191.204666 
	C807.998108,200.277191 800.409912,205.992081 789.897156,205.972702 
	C779.639893,205.953796 772.343567,200.409714 771.114868,191.701126 
	C769.611816,181.049011 774.091309,173.709976 784.042297,170.558411 
	C784.826660,170.309998 785.654541,170.199219 786.864746,170.007019 
M796.064636,189.260300 
	C795.856079,182.131409 792.590576,178.749664 787.967896,180.969727 
	C784.316406,182.723358 783.708740,186.222336 784.674377,189.444626 
	C785.315125,191.582809 787.348633,194.182068 789.335754,194.844818 
	C792.841248,196.013992 795.285645,193.822357 796.064636,189.260300 
z"/>
<path fill="#F9FCFE" opacity="1.000000" stroke="none" 
	d="
M960.308350,215.800354 
	C959.550903,213.940842 958.938965,212.406204 958.351440,210.932755 
	C958.654724,210.565475 958.809631,210.215546 959.074036,210.081070 
	C969.537781,204.760498 967.319641,205.787628 963.998779,196.821365 
	C961.122131,189.054550 958.005859,181.376495 954.787415,173.125916 
	C958.845703,171.961227 962.585083,170.888077 966.756592,169.690918 
	C968.960144,175.946701 971.039429,181.849716 973.118713,187.752731 
	C973.474182,187.843277 973.829651,187.933823 974.185120,188.024368 
	C975.564880,183.970169 977.211182,179.982697 978.247314,175.842499 
	C979.230652,171.912872 981.217529,170.339584 985.262573,170.925842 
	C987.531311,171.254654 989.886719,170.985016 992.938354,170.985016 
	C991.038147,175.942490 989.362549,180.381744 987.636719,184.801376 
	C984.733765,192.235519 981.635071,199.598160 978.930481,207.103226 
	C976.848816,212.879745 972.714478,216.317154 967.447327,218.911041 
	C963.905396,220.655289 961.455688,220.399017 960.308350,215.800354 
z"/>
<path fill="#FBFEFE" opacity="1.000000" stroke="none" 
	d="
M951.458313,193.969299 
	C951.458069,197.761658 951.458069,201.064178 951.458069,204.682755 
	C946.957581,204.682755 942.907349,204.682755 938.173218,204.682755 
	C938.173218,198.494904 938.180542,192.399124 938.169800,186.303375 
	C938.165100,183.639496 938.543518,180.632874 934.644836,180.386108 
	C930.303833,180.111313 928.011780,182.366730 927.996521,186.727798 
	C927.976196,192.538727 927.991577,198.349792 927.991577,204.584656 
	C923.763489,204.584656 919.741760,204.584656 915.397949,204.584656 
	C915.397949,193.509232 915.397949,182.480804 915.397949,170.425232 
	C919.134827,171.230194 922.392090,171.931839 926.261230,172.765289 
	C930.214783,171.975067 935.138062,170.472809 940.141357,170.126862 
	C945.928467,169.726700 950.047791,173.281250 950.850891,179.066376 
	C951.509094,183.807495 951.289185,188.670486 951.458313,193.969299 
z"/>
<path fill="#FBFEFE" opacity="1.000000" stroke="none" 
	d="
M766.458252,190.053772 
	C766.458008,195.170258 766.458008,199.798340 766.458008,204.714905 
	C761.916382,204.714905 757.862549,204.714905 753.172180,204.714905 
	C753.172180,198.265823 753.154053,191.998688 753.180847,185.731720 
	C753.192139,183.094437 753.030701,180.111252 749.590820,180.506058 
	C746.688293,180.839188 742.637329,180.545410 742.917297,185.809967 
	C743.242737,191.929337 742.993164,198.079300 742.993164,204.611877 
	C738.708130,204.611877 734.688110,204.611877 730.372559,204.611877 
	C730.372559,193.587143 730.372559,182.688675 730.372559,170.570801 
	C734.002869,171.266052 737.363770,171.909714 741.674744,172.735321 
	C744.954468,172.017365 749.544922,170.429520 754.218994,170.125198 
	C761.324585,169.662582 765.290955,173.426849 766.170166,180.606628 
	C766.531860,183.560364 766.377930,186.577240 766.458252,190.053772 
z"/>
<path fill="#2682AE" opacity="1.000000" stroke="none" 
	d="
M772.151489,467.698914 
	C773.696472,467.521423 775.320679,467.956757 776.945129,467.957764 
	C832.664490,467.992981 888.383911,467.989197 944.103271,467.974091 
	C945.422546,467.973724 946.741760,467.779938 948.494141,467.481934 
	C947.587219,468.456177 946.377319,469.858612 944.857788,470.704926 
	C943.961548,471.204041 942.574402,470.834106 941.408081,470.834137 
	C887.414917,470.836151 833.421631,470.870880 779.428894,470.720306 
	C777.027161,470.713593 774.630066,469.018097 772.151489,467.698914 
z"/>
<path fill="#F3F9FC" opacity="1.000000" stroke="none" 
	d="
M795.817871,301.182159 
	C792.205627,300.183197 788.993774,299.089661 785.573853,297.925262 
	C785.520508,298.115509 785.171448,299.359802 784.764526,300.810364 
	C783.185364,300.810364 781.574158,300.810364 779.248535,300.810364 
	C779.248535,298.206268 779.407532,295.746552 779.162292,293.327820 
	C779.076599,292.482910 777.994629,291.739044 777.367676,290.949066 
	C776.690613,291.716522 775.519531,292.430603 775.429688,293.261505 
	C775.167358,295.689087 775.336426,298.163269 775.336426,300.816650 
	C773.135376,300.816650 771.517517,300.816650 769.706848,300.816650 
	C769.706848,295.905548 769.706848,291.203247 769.706848,285.254150 
	C774.846375,289.637756 783.320557,280.667755 785.426697,290.982300 
	C788.628296,288.893066 791.817810,286.811676 795.007385,284.730316 
	C795.294495,285.015656 795.581604,285.300995 795.868774,285.586334 
	C796.029419,283.977173 796.190002,282.367981 796.399780,280.267029 
	C798.128357,280.138947 799.822266,280.013428 801.764526,279.869507 
	C801.764526,287.030457 801.764526,293.776703 801.764526,300.700073 
	C799.761963,300.839996 797.990112,300.963776 795.817871,301.182159 
z"/>
<path fill="#F9FCFE" opacity="1.000000" stroke="none" 
	d="
M901.980835,170.985001 
	C904.251892,170.985001 906.059998,170.985001 908.167908,170.985001 
	C908.283875,172.807510 908.453674,174.268753 908.457397,175.730438 
	C908.481567,185.324326 908.469849,194.918304 908.469849,204.759094 
	C904.010681,204.759094 900.085754,204.759094 895.737061,204.759094 
	C895.737061,193.713089 895.737061,182.712189 895.737061,170.985001 
	C897.687134,170.985001 899.602478,170.985001 901.980835,170.985001 
z"/>
<path fill="#F3F9FC" opacity="1.000000" stroke="none" 
	d="
M712.610535,290.245056 
	C713.526184,290.509369 714.875610,290.575653 714.957275,290.285339 
	C716.109070,286.189758 718.171082,285.166840 722.328369,286.853149 
	C724.146912,287.590851 726.763428,286.361359 729.496948,285.953705 
	C729.496948,291.156464 729.496948,295.720459 729.496948,300.655212 
	C727.773193,300.655212 726.059509,300.655212 723.744629,300.655212 
	C723.744629,296.015594 723.744629,291.480194 723.744629,286.944794 
	C723.300964,286.840942 722.857239,286.737061 722.413574,286.633209 
	C720.986328,290.041199 719.519775,293.433472 718.146179,296.863007 
	C717.290833,298.998444 716.784485,301.951721 713.688721,300.872009 
	C711.930176,300.258667 710.305420,298.346039 709.329224,296.618042 
	C707.834534,293.972473 706.952026,290.981079 705.809692,288.136475 
	C705.398071,288.216339 704.986450,288.296173 704.574829,288.376038 
	C704.574829,292.380127 704.574829,296.384216 704.574829,300.702820 
	C702.230347,300.702820 700.519897,300.702820 698.595276,300.702820 
	C698.595276,295.872284 698.595276,291.286804 698.595276,286.735962 
	C702.704895,286.540344 706.521362,286.149872 710.306458,286.350922 
	C711.082886,286.392151 711.741821,288.646790 712.610535,290.245056 
z"/>
<path fill="#F3F9FC" opacity="1.000000" stroke="none" 
	d="
M882.156372,286.150848 
	C883.601440,287.785217 884.683533,289.469788 885.425293,290.624481 
	C886.824707,289.352753 888.420044,286.874512 890.456665,286.433289 
	C891.702148,286.163483 893.625305,289.022552 895.420105,290.634460 
	C896.225464,288.122681 897.120300,284.577850 902.430969,286.806976 
	C901.014709,290.999268 899.848389,295.434082 897.874817,299.474609 
	C897.474609,300.293976 893.985291,299.861542 892.010742,299.504822 
	C891.385559,299.391876 891.054749,297.649506 890.344727,296.129120 
	C889.662537,297.437592 889.363464,298.383148 888.763611,299.063507 
	C888.081726,299.836823 887.151367,300.896423 886.294128,300.929657 
	C879.483276,301.193695 881.881287,294.805542 879.857178,291.601807 
	C878.507629,289.465668 877.784851,286.783813 882.156372,286.150848 
z"/>
<path fill="#F3F9FC" opacity="1.000000" stroke="none" 
	d="
M1027.006592,301.345825 
	C1020.542358,300.602966 1018.478027,298.567932 1018.577515,293.514984 
	C1018.676392,288.487640 1020.932373,286.479523 1027.704346,285.631470 
	C1027.921753,283.960876 1028.149902,282.208099 1028.412720,280.189331 
	C1030.099243,280.088623 1031.703369,279.992828 1033.639893,279.877197 
	C1033.639893,286.863068 1033.639893,293.588135 1033.639893,300.600952 
	C1031.538818,300.820068 1029.467896,301.036041 1027.006592,301.345825 
z"/>
<path fill="#F3F9FC" opacity="1.000000" stroke="none" 
	d="
M926.293091,295.750702 
	C926.335571,290.624786 926.370850,285.968079 926.438782,281.311890 
	C926.442993,281.022736 926.703918,280.737366 926.983582,280.169891 
	C928.449890,280.089874 930.060669,280.001984 931.882996,279.902557 
	C932.145996,281.916473 932.376648,283.682648 932.602417,285.411346 
	C942.870239,287.289764 943.090515,287.659302 941.582214,300.781036 
	C940.082825,300.846924 938.517639,300.915680 936.243408,301.015594 
	C936.243408,298.174469 936.403870,295.707336 936.155151,293.282166 
	C936.069702,292.448669 934.962097,291.720032 934.321411,290.943512 
	C933.658508,291.725281 932.522522,292.451965 932.423828,293.299408 
	C932.157410,295.587128 932.332703,297.926270 932.332703,300.631348 
	C930.291199,300.631348 928.588623,300.631348 926.556885,300.631348 
	C926.468384,299.150787 926.380798,297.685394 926.293091,295.750702 
z"/>
<path fill="#F9FCFE" opacity="1.000000" stroke="none" 
	d="
M826.983887,280.151154 
	C828.412537,280.151154 829.841248,280.151154 831.420105,280.151154 
	C831.656494,282.249542 831.854919,284.010406 832.047424,285.719360 
	C841.170837,286.177460 842.217041,285.832031 841.072632,300.712006 
	C839.606812,300.804840 838.072998,300.901978 835.893127,301.040009 
	C835.893127,298.207001 836.111328,295.735260 835.780579,293.339294 
	C835.656677,292.441986 834.255127,291.721069 833.436157,290.919739 
	C832.877136,291.778534 831.929077,292.597321 831.835938,293.503906 
	C831.603455,295.768524 831.759155,298.073059 831.759155,300.744354 
	C829.653015,300.744354 828.067749,300.744354 826.276855,299.958740 
	C826.375366,292.832458 826.679626,286.491791 826.983887,280.151154 
z"/>
<path fill="#F3F9FC" opacity="1.000000" stroke="none" 
	d="
M995.856689,286.712952 
	C997.446228,289.229889 998.706177,291.530243 1000.449097,294.712524 
	C996.587952,294.925507 994.164856,295.059174 991.741821,295.192810 
	C991.722717,295.576721 991.703613,295.960632 991.684509,296.344543 
	C993.599670,296.450409 995.514771,296.556274 997.822021,296.683777 
	C999.792114,299.052338 999.375366,301.239563 995.675110,300.993927 
	C992.286499,300.768921 988.315796,300.066803 985.886536,298.037079 
	C984.382874,296.780701 984.339661,292.273010 985.300232,289.895142 
	C987.098633,285.442993 991.330322,285.337189 995.856689,286.712952 
z"/>
<path fill="#F3F9FC" opacity="1.000000" stroke="none" 
	d="
M1011.174805,299.602234 
	C1011.084534,297.329559 1011.285278,295.462097 1010.960938,293.690765 
	C1010.777344,292.687836 1009.731750,291.842712 1009.074341,290.926514 
	C1008.373291,291.809082 1007.194702,292.628143 1007.067139,293.587036 
	C1006.767822,295.837189 1006.971313,298.154236 1006.971313,300.725403 
	C1004.901917,300.725403 1003.320679,300.725403 1001.395691,300.725403 
	C1001.395691,295.961334 1001.395691,291.244293 1001.395691,286.805328 
	C1004.697998,286.513733 1007.697632,286.244720 1010.698059,285.984955 
	C1014.621399,285.645264 1016.691589,287.548889 1016.882507,291.379913 
	C1017.030090,294.341248 1016.911865,297.315826 1016.911865,301.245178 
	C1014.723938,300.782776 1012.984985,300.415253 1011.174805,299.602234 
z"/>
<path fill="#F3F9FC" opacity="1.000000" stroke="none" 
	d="
M958.555603,294.135498 
	C958.526367,296.538605 958.526367,298.500946 958.526367,300.739166 
	C956.459534,300.739166 954.875244,300.739166 953.674072,300.739166 
	C952.482056,296.836365 950.351501,293.045135 950.508972,289.351440 
	C950.631042,286.488129 953.102173,283.124481 955.495239,281.160797 
	C957.208313,279.755157 960.519958,280.297699 963.118347,279.971008 
	C963.375427,280.616791 963.632446,281.262573 963.889526,281.908356 
	C962.287109,283.287170 960.684753,284.665985 959.215820,285.929993 
	C963.606689,288.341431 963.606689,288.341431 958.555603,294.135498 
z"/>
<path fill="#F3F9FC" opacity="1.000000" stroke="none" 
	d="
M755.735474,291.205811 
	C754.305847,288.743896 753.727600,286.913910 757.041382,286.129639 
	C762.116211,284.928436 765.820557,286.499695 766.717102,290.486694 
	C766.861206,291.127563 766.856689,291.809509 766.860413,292.472839 
	C766.875488,295.121857 766.866699,297.771027 766.866699,300.374481 
	C764.053345,300.753418 761.539551,301.441986 759.073792,301.299561 
	C757.462769,301.206482 754.628784,299.967621 754.590637,299.138489 
	C754.475037,296.628418 755.455261,294.067871 755.735474,291.205811 
M759.091919,290.936737 
	C758.256470,291.047546 757.420959,291.158386 756.585510,291.269196 
	C756.608337,291.494751 756.631165,291.720306 756.653992,291.945862 
	C757.625000,291.771362 758.595947,291.596863 759.091919,290.936737 
z"/>
<path fill="#F3F9FC" opacity="1.000000" stroke="none" 
	d="
M850.820312,285.976715 
	C855.234375,286.123169 856.760681,288.545563 856.850220,292.184143 
	C856.919067,294.983002 856.863892,297.784882 856.863892,300.468506 
	C853.898010,300.822662 851.379578,301.280396 848.846069,301.388977 
	C845.067078,301.550934 842.766174,298.137390 843.934875,294.588806 
	C844.639893,292.448303 845.013306,290.198608 845.535706,287.997986 
	C845.132385,287.653381 844.729126,287.308807 844.325867,286.964233 
	C846.351868,286.634125 848.377869,286.304016 850.820312,285.976715 
M847.028320,291.911377 
	C847.867432,291.819183 848.706604,291.726959 849.545715,291.634766 
	C849.511047,291.397125 849.476318,291.159485 849.441650,290.921844 
	C848.482056,291.092987 847.522461,291.264130 847.028320,291.911377 
z"/>
<path fill="#F9FCFE" opacity="1.000000" stroke="none" 
	d="
M741.386230,286.194763 
	C745.493225,289.451172 745.737183,290.665558 744.606995,300.407074 
	C742.280457,300.734985 739.900452,301.477570 737.611267,301.260895 
	C735.863220,301.095428 733.160034,300.039764 732.785034,298.803009 
	C732.148071,296.701935 733.009949,294.146393 734.414124,291.898346 
	C733.797180,290.486877 733.180176,289.075439 732.148499,286.715118 
	C735.571960,286.469055 738.277100,286.274628 741.386230,286.194763 
M735.927612,291.882843 
	C736.760315,291.801910 737.593018,291.721008 738.425781,291.640106 
	C738.388977,291.386963 738.352173,291.133820 738.315369,290.880676 
	C737.363953,291.053101 736.412537,291.225525 735.927612,291.882843 
z"/>
<path fill="#F3F9FC" opacity="1.000000" stroke="none" 
	d="
M673.119995,292.407104 
	C670.111511,287.635651 672.623901,283.305176 677.505554,282.622864 
	C679.590576,284.479004 681.543213,285.665619 682.618530,287.397095 
	C683.193604,288.323151 682.483276,290.284149 681.927551,291.598175 
	C681.511780,292.581451 679.795044,293.278564 679.796997,294.100403 
	C679.798950,294.925598 681.228027,295.732422 682.001831,296.574799 
	C682.952576,297.609833 683.872375,298.673309 684.965027,299.904144 
	C677.252258,302.877838 674.326477,300.858276 673.119995,292.407104 
z"/>
<path fill="#F3F9FC" opacity="1.000000" stroke="none" 
	d="
M869.332092,287.194336 
	C869.349487,288.785950 869.193604,290.316528 868.599060,291.651703 
	C868.154785,292.649200 866.494995,293.450531 866.562927,294.236908 
	C866.635254,295.076569 868.136658,295.760406 868.948608,296.577454 
	C869.869385,297.504089 870.717346,298.503052 871.596985,299.470551 
	C871.372986,300.089783 871.148987,300.709015 870.924988,301.328217 
	C868.144226,300.848846 864.095154,301.327698 862.854126,299.684998 
	C860.477051,296.538635 858.712830,292.202881 858.648743,288.328308 
	C858.614441,286.255249 860.254822,281.309967 864.483765,282.375214 
	C866.219299,284.183258 867.594910,285.616333 869.332092,287.194336 
z"/>
<path fill="#F3F9FC" opacity="1.000000" stroke="none" 
	d="
M922.041260,291.594879 
	C917.880310,293.166077 918.396118,294.767548 921.433044,296.612000 
	C922.619934,297.332916 923.617188,298.366119 924.700806,299.257080 
	C924.444397,299.943817 924.187988,300.630524 923.931519,301.317230 
	C921.152283,300.844543 917.104675,301.331696 915.865112,299.693817 
	C913.485291,296.549133 911.713013,292.216370 911.645691,288.342438 
	C911.609497,286.256226 913.252869,281.334534 916.936890,282.240173 
	C919.280823,284.375458 921.158386,285.598236 922.298645,287.311646 
	C922.958435,288.303070 922.430298,290.085052 922.041260,291.594879 
z"/>
<path fill="#F3F9FC" opacity="1.000000" stroke="none" 
	d="
M826.636841,280.256531 
	C826.679626,286.491791 826.375366,292.832458 826.073975,299.549072 
	C825.068115,300.170929 824.036011,300.346649 823.054993,300.675049 
	C819.146362,301.983429 814.871277,302.215302 812.765747,298.491333 
	C811.397949,296.072144 811.396423,291.960846 812.476257,289.293243 
	C814.091614,285.302795 818.358521,285.633514 822.084900,286.231293 
	C823.135864,286.399872 824.119385,286.989227 825.498901,287.528259 
	C825.793396,284.860260 826.041687,282.611084 826.636841,280.256531 
M821.308594,290.863434 
	C819.892822,291.811035 818.477051,292.758606 817.061218,293.706177 
	C818.325378,294.650726 819.535156,295.682281 820.868713,296.515808 
	C822.251770,297.380249 823.754639,298.052826 825.514648,298.970703 
	C825.514648,295.344879 825.514648,291.703125 825.514648,286.424103 
	C823.847290,288.620880 822.999939,289.737213 821.308594,290.863434 
z"/>
<path fill="#F3F9FC" opacity="1.000000" stroke="none" 
	d="
M1039.798828,286.261383 
	C1042.864014,286.285858 1045.550903,286.439575 1048.237793,286.593262 
	C1048.417603,287.127563 1048.597534,287.661835 1048.777466,288.196106 
	C1047.389648,289.357178 1046.001831,290.518250 1044.614136,291.679352 
	C1045.040527,291.458710 1045.466919,291.238068 1045.893433,291.017426 
	C1046.630127,293.627991 1048.425781,296.503296 1047.854736,298.786835 
	C1047.005127,302.184479 1041.642578,302.307037 1035.946777,299.249725 
	C1037.238647,297.850739 1038.407715,296.584747 1039.576172,295.319427 
	C1035.252808,291.286804 1035.186157,290.113739 1039.798828,286.261383 
z"/>
<path fill="#F9FCFE" opacity="1.000000" stroke="none" 
	d="
M897.344543,154.217407 
	C900.516846,151.844696 903.859924,151.556976 906.148987,154.129974 
	C907.758118,155.938675 908.951904,159.255325 908.445801,161.467209 
	C907.996094,163.432510 905.111511,165.818695 903.006409,166.151550 
	C900.910583,166.482941 897.785400,165.073486 896.295166,163.383606 
	C893.866150,160.629318 894.488892,157.238800 897.344543,154.217407 
z"/>
<path fill="#E4F3F9" opacity="1.000000" stroke="none" 
	d="
M866.631592,349.933960 
	C872.214600,349.525970 877.347168,349.242706 883.154541,348.922211 
	C882.429626,351.216034 881.902771,352.883057 881.148804,355.268860 
	C878.420776,354.685303 875.921997,354.150818 873.064087,353.539490 
	C870.283264,358.600464 866.860291,352.689941 863.757996,352.642426 
	C862.090210,353.415466 859.772461,355.026978 859.306030,354.602783 
	C858.031921,353.444000 857.538330,351.427002 856.440369,349.133148 
	C860.273987,349.497437 863.227478,349.778076 866.631592,349.933960 
z"/>
<path fill="#F3F9FC" opacity="1.000000" stroke="none" 
	d="
M977.009888,300.609283 
	C976.744263,297.509796 976.478577,294.410309 976.198059,291.137512 
	C968.183655,290.699280 972.145813,297.391998 970.254944,300.750000 
	C968.740662,300.750000 967.162720,300.750000 965.288696,300.750000 
	C965.288696,295.899261 965.288696,291.181091 965.288696,286.517212 
	C968.211487,286.680756 970.834778,286.827545 974.059631,287.007996 
	C974.376343,287.623169 974.986328,288.808044 975.947998,290.675934 
	C976.316223,289.063812 976.495911,288.277435 976.854736,287.634888 
	C977.025879,292.055603 977.017883,296.332458 977.009888,300.609283 
z"/>
<path fill="#F3F9FC" opacity="1.000000" stroke="none" 
	d="
M692.260132,298.494690 
	C690.593811,299.839355 688.941040,300.757416 686.574829,302.071808 
	C686.574829,295.872375 686.574829,291.280548 686.574829,286.811890 
	C689.649719,286.811890 692.443054,286.811890 695.622131,286.811890 
	C695.907654,287.777496 696.268433,288.997620 696.717834,290.517334 
	C692.039673,291.252838 692.031372,294.593292 692.260132,298.494690 
z"/>
<path fill="#E4F3F9" opacity="1.000000" stroke="none" 
	d="
M890.935913,350.315674 
	C895.146790,349.914825 899.356079,349.421692 903.572815,349.345520 
	C903.822449,349.340973 904.762451,352.910797 904.231201,354.409821 
	C903.735596,355.808319 901.706543,356.663391 900.000610,358.041992 
	C899.503296,356.804321 899.054016,355.686249 898.379761,354.008179 
	C896.641174,355.274841 894.943848,356.511475 892.927979,357.980133 
	C892.467590,356.919769 892.041931,355.939240 891.268066,354.426086 
	C890.925232,352.700867 890.930603,351.508270 890.935913,350.315674 
z"/>
<path fill="#E4F3F9" opacity="1.000000" stroke="none" 
	d="
M819.976807,349.386353 
	C824.644470,349.275208 829.329895,349.376770 833.974670,348.990356 
	C838.227173,348.636536 839.309082,350.481476 838.409973,354.807434 
	C836.339417,352.849060 831.879639,358.241486 831.750610,351.371521 
	C828.944153,355.482117 826.093628,355.950684 821.314453,353.254761 
	C820.591370,351.852295 820.284058,350.619324 819.976807,349.386353 
z"/>
<path fill="#E4F3F9" opacity="1.000000" stroke="none" 
	d="
M791.080872,353.153046 
	C790.611633,352.745483 790.142456,352.337921 789.673218,351.930389 
	C788.097473,356.552521 784.736816,355.117401 781.416687,354.582520 
	C779.780640,354.318939 777.993652,354.992493 776.277588,355.241608 
	C775.323425,349.378815 775.323486,349.375671 780.813293,349.488068 
	C784.225952,349.557983 787.638428,349.639343 791.453613,349.961182 
	C791.597717,351.188873 791.339294,352.170959 791.080872,353.153046 
z"/>
<path fill="#F3F9FC" opacity="1.000000" stroke="none" 
	d="
M909.957825,290.273865 
	C909.958435,293.880280 909.958435,297.027527 909.958435,300.591553 
	C908.000061,300.591553 906.317505,300.591553 904.344604,300.591553 
	C904.344604,295.960236 904.344604,291.383789 904.344604,286.507294 
	C907.307861,286.086426 910.286621,284.976135 909.957825,290.273865 
z"/>
<path fill="#F3F9FC" opacity="1.000000" stroke="none" 
	d="
M819.618530,349.236969 
	C820.284058,350.619324 820.591370,351.852295 820.930054,353.401672 
	C820.961426,353.718048 820.950684,353.893829 820.617798,353.991699 
	C819.852051,354.372833 819.419128,354.656067 818.986206,354.939331 
	C816.491760,354.988831 813.976562,355.245758 811.511536,355.000183 
	C810.283508,354.877838 808.468750,354.069733 808.149536,353.146484 
	C807.789734,352.105591 808.516235,350.352692 809.314331,349.336914 
	C810.220886,348.183075 811.729614,347.502411 813.338623,346.358704 
	C813.711121,347.814911 814.048157,349.132599 814.310181,350.157074 
	C815.973083,349.797791 817.616638,349.442719 819.618530,349.236969 
z"/>
<path fill="#E4F3F9" opacity="1.000000" stroke="none" 
	d="
M922.019165,353.875977 
	C918.116150,354.237976 914.192871,355.007141 910.317383,354.814362 
	C907.861694,354.692200 907.525818,351.211945 909.652649,349.408966 
	C910.821655,348.417877 912.115295,347.573822 912.454834,347.324097 
	C915.818970,348.167358 918.509155,348.841705 921.510925,349.716522 
	C921.888123,351.236664 921.953674,352.556305 922.019165,353.875977 
z"/>
<path fill="#F3F9FC" opacity="1.000000" stroke="none" 
	d="
M922.393066,354.053711 
	C921.953674,352.556305 921.888123,351.236664 921.927124,349.675110 
	C922.031677,349.433258 922.068359,349.166931 922.321411,348.960663 
	C922.758606,348.569000 922.901001,348.355713 923.001587,348.114502 
	C926.768738,348.597260 930.535889,349.079987 933.889343,349.509705 
	C931.704773,355.707428 930.587158,356.292877 922.393066,354.053711 
z"/>
<path fill="#E4F3F9" opacity="1.000000" stroke="none" 
	d="
M845.255981,348.796417 
	C847.122620,349.015564 848.855957,348.556122 850.204102,349.082703 
	C851.608948,349.631439 852.642334,351.131256 853.838135,352.215271 
	C852.710144,353.199402 851.185181,355.236755 850.522400,354.986877 
	C847.521667,353.855652 842.289062,357.666687 841.603516,351.242371 
	C841.320496,348.589844 841.723755,346.818451 845.255981,348.796417 
z"/>
<path fill="#FBFEFE" opacity="1.000000" stroke="none" 
	d="
M977.402222,300.767426 
	C977.017883,296.332458 977.025879,292.055603 977.016602,287.392395 
	C978.398010,286.766449 979.796692,286.526855 981.566528,286.936523 
	C981.946472,291.933746 981.955139,296.281708 981.963867,300.629700 
	C980.574097,300.728333 979.184387,300.826965 977.402222,300.767426 
z"/>
<path fill="#E4F3F9" opacity="1.000000" stroke="none" 
	d="
M795.976685,349.386261 
	C797.116699,348.570465 798.256714,347.754669 799.811157,346.642365 
	C801.673767,347.789642 805.559998,348.420135 803.848999,352.381287 
	C803.334717,353.571808 799.815552,353.464294 797.283569,353.526520 
	C796.588379,351.863159 796.282532,350.624725 795.976685,349.386261 
z"/>
<path fill="#E4F3F9" opacity="1.000000" stroke="none" 
	d="
M945.043701,350.010956 
	C944.880188,355.180695 941.200867,354.842102 937.589111,354.872925 
	C937.589111,351.980316 937.589111,349.251648 937.589111,347.065460 
	C940.066040,348.304382 942.272522,349.407990 944.743286,350.265320 
	C945.007690,350.018982 945.043701,350.010956 945.043701,350.010956 
z"/>
<path fill="#F3F9FC" opacity="1.000000" stroke="none" 
	d="
M905.268860,283.970459 
	C905.065002,282.221313 904.960632,280.585693 905.388306,279.103546 
	C905.469177,278.823303 907.890564,278.774109 908.809998,279.323883 
	C909.516052,279.746094 910.072998,282.005554 909.808960,282.192047 
	C908.557068,283.076569 907.000732,283.530121 905.268860,283.970459 
z"/>
<path fill="#E4F3F9" opacity="1.000000" stroke="none" 
	d="
M982.444153,280.498413 
	C981.607544,282.069824 980.780823,283.545868 979.534912,284.432983 
	C979.184448,284.682434 977.076965,283.394928 976.736694,282.461823 
	C976.406311,281.555908 977.281372,279.225739 977.677307,279.214020 
	C979.205750,279.168701 980.754333,279.800537 982.444153,280.498413 
z"/>
<path fill="#E4F3F9" opacity="1.000000" stroke="none" 
	d="
M701.694824,278.461945 
	C702.743103,279.942261 703.694824,281.306366 703.991272,282.800507 
	C704.064880,283.171295 701.943604,284.529663 700.964294,284.403229 
	C699.970398,284.274933 698.236450,282.444122 698.398193,282.102203 
	C699.056152,280.710938 700.317322,279.604950 701.694824,278.461945 
z"/>
<path fill="#2682AE" opacity="1.000000" stroke="none" 
	d="
M771.710815,426.631439 
	C771.920532,439.570801 771.953552,452.844910 772.014160,466.597046 
	C771.718201,465.474701 771.107544,463.872711 771.117004,462.274384 
	C771.186462,450.504578 771.379822,438.735504 771.710815,426.631439 
z"/>
<path fill="#2682AE" opacity="1.000000" stroke="none" 
	d="
M949.157104,466.704346 
	C948.990173,453.771484 949.022034,440.467926 949.083252,426.730408 
	C949.385986,429.893890 949.905457,433.492767 949.885437,437.088593 
	C949.831177,446.837646 949.548157,456.585388 949.157104,466.704346 
z"/>
<path fill="#E4F3F9" opacity="1.000000" stroke="none" 
	d="
M723.931519,281.163055 
	C725.309326,280.128174 726.622009,279.134674 728.060242,278.894867 
	C728.501709,278.821259 729.861084,280.874298 729.754761,281.838165 
	C729.647034,282.813782 727.824524,284.543488 727.484192,284.383942 
	C726.138550,283.752960 725.079773,282.510284 723.931519,281.163055 
z"/>
<path fill="#F3F9FC" opacity="1.000000" stroke="none" 
	d="
M890.783081,349.998657 
	C890.930603,351.508270 890.925232,352.700867 890.941772,354.251312 
	C889.448669,354.752167 887.933655,354.895203 886.074036,355.070770 
	C886.226440,352.784180 886.337769,351.114502 886.488647,348.851959 
	C887.990845,349.152893 889.310608,349.417297 890.783081,349.998657 
z"/>
<path fill="#F3F9FC" opacity="1.000000" stroke="none" 
	d="
M795.582214,349.235596 
	C796.282532,350.624725 796.588379,351.863159 796.921509,353.420532 
	C795.416626,354.095612 793.884583,354.451782 792.070923,354.512207 
	C791.789307,354.216522 791.497986,354.022217 791.497986,354.022217 
	C791.387939,353.896973 791.277832,353.771729 791.124329,353.399780 
	C791.339294,352.170959 791.597717,351.188873 791.927856,349.960754 
	C793.062256,349.504791 794.125000,349.294861 795.582214,349.235596 
z"/>
<path fill="#F3F9FC" opacity="1.000000" stroke="none" 
	d="
M982.150757,300.299103 
	C981.955139,296.281708 981.946472,291.933746 981.939819,287.178833 
	C982.073853,291.170807 982.205750,295.569641 982.150757,300.299103 
z"/>
<path fill="#E4F3F9" opacity="1.000000" stroke="none" 
	d="
M819.267212,354.953308 
	C819.419128,354.656067 819.852051,354.372833 820.536499,354.025543 
	C820.374695,354.296753 819.961426,354.632019 819.267212,354.953308 
z"/>
<path fill="#E4F3F9" opacity="1.000000" stroke="none" 
	d="
M791.507080,354.126160 
	C791.497986,354.022217 791.789307,354.216522 791.833374,354.290955 
	C791.877502,354.365417 791.516235,354.230072 791.507080,354.126160 
z"/>
<path fill="#E4F3F9" opacity="1.000000" stroke="none" 
	d="
M945.008484,350.002441 
	C945.009277,349.985901 945.332092,349.846191 945.332092,349.846191 
	C945.332092,349.846191 944.945007,349.793365 944.994385,349.902161 
	C945.043701,350.010956 945.007690,350.018982 945.008484,350.002441 
z"/>
<path fill="#E4F3F9" opacity="1.000000" stroke="none" 
	d="
M922.800903,348.181091 
	C922.901001,348.355713 922.758606,348.569000 922.423828,348.873627 
	C922.246277,348.684814 922.355286,348.436432 922.800903,348.181091 
z"/>
<path fill="#9D9498" opacity="1.000000" stroke="none" 
	d="
M912.314575,444.193512 
	C917.447510,443.792786 922.397400,443.018188 927.067322,443.838104 
	C929.133728,444.200928 930.202393,444.894714 932.298401,443.539612 
	C934.946472,441.827454 936.892517,443.291656 937.360413,446.856171 
	C935.587769,447.037018 934.022583,447.196716 932.457397,447.356384 
	C932.326050,447.684296 932.194641,448.012207 932.063293,448.340088 
	C933.308289,449.095490 934.553345,449.850891 935.798340,450.606262 
	C930.986755,448.843994 926.358643,447.466492 923.668579,453.859680 
	C923.515198,454.224121 921.386536,453.757385 920.124207,452.671082 
	C921.273804,452.671082 922.423462,452.671082 924.999146,452.671082 
	C922.210327,451.001373 920.571472,450.020172 918.932617,449.039001 
	C918.922852,449.359924 918.913086,449.680878 918.903320,450.001831 
	C916.389832,450.001831 913.876343,450.001831 910.214905,450.001831 
	C907.817810,453.634369 904.437805,449.414062 901.389343,448.344116 
	C901.652161,448.081268 902.577881,447.536591 902.931030,446.738495 
	C904.806946,442.499664 907.257751,441.513275 910.805725,445.006195 
	C910.921265,445.119904 911.600952,444.660492 912.314575,444.193512 
z"/>
<path fill="#9D9498" opacity="1.000000" stroke="none" 
	d="
M839.165771,453.920319 
	C839.712830,453.205322 840.566406,452.610291 841.656189,451.850586 
	C840.212830,450.991882 838.571716,450.015533 836.930603,449.039154 
	C836.913513,449.454926 836.896362,449.870728 836.879272,450.286499 
	C834.874146,450.286499 832.567017,450.876617 830.978027,450.063446 
	C830.036560,449.581635 829.934875,446.866302 830.040833,445.192322 
	C830.090210,444.411835 831.523376,443.100891 832.339783,443.092926 
	C836.101746,443.056152 839.867371,443.393738 843.681885,443.599823 
	C844.993103,451.607025 844.360535,453.222870 839.165771,453.920319 
z"/>
<path fill="#9D9498" opacity="1.000000" stroke="none" 
	d="
M865.997375,444.872559 
	C866.887939,444.655731 867.648071,444.148621 868.408264,443.641510 
	C868.510437,443.878876 868.612610,444.116211 868.714783,444.353577 
	C870.081909,444.051544 872.128296,443.050781 872.680176,443.587372 
	C873.983582,444.854431 874.575745,446.853149 874.657837,448.941895 
	C874.240479,448.292969 873.823181,447.644043 873.071655,446.475433 
	C872.053894,448.199219 871.282288,449.506073 870.977112,450.022888 
	C869.123840,450.022888 867.762085,450.022888 865.803894,450.022888 
	C865.397644,448.460205 864.783997,446.099854 863.934814,442.833801 
	C865.027161,443.822266 865.447083,444.202240 865.997375,444.872559 
z"/>
<path fill="#2682AE" opacity="1.000000" stroke="none" 
	d="
M798.044739,451.023132 
	C795.251343,451.888489 792.330994,453.691589 789.702881,453.335846 
	C787.414734,453.026123 785.456543,450.278900 783.352539,448.608765 
	C783.670044,448.269592 783.987549,447.930420 784.305054,447.591248 
	C787.870605,448.313782 791.436218,449.036316 795.621643,449.895111 
	C796.842529,450.361969 797.443665,450.692535 798.044739,451.023132 
z"/>
<path fill="#EC5649" opacity="1.000000" stroke="none" 
	d="
M790.403809,436.128387 
	C793.069702,436.534058 795.340881,437.006348 797.612122,437.478638 
	C797.586182,437.931580 797.560303,438.384552 797.534363,438.837494 
	C793.130310,440.106995 788.726318,441.376526 784.084167,442.714661 
	C784.167236,438.587799 787.014099,437.324127 790.403809,436.128387 
z"/>
<path fill="#31A9E2" opacity="1.000000" stroke="none" 
	d="
M798.371948,450.893036 
	C797.443665,450.692535 796.842529,450.361969 796.025085,449.758301 
	C795.173279,448.590240 794.553345,447.683807 793.897766,446.803802 
	C793.319275,446.027191 792.701050,445.280182 792.100403,444.520081 
	C792.856506,444.079773 793.614929,443.267578 794.368347,443.272308 
	C796.260803,443.284119 798.150940,443.665100 800.042053,443.898010 
	C799.594421,446.186310 799.146851,448.474640 798.371948,450.893036 
z"/>
<path fill="#31A9E2" opacity="1.000000" stroke="none" 
	d="
M831.318237,179.963196 
	C832.598755,181.110428 834.004578,182.171448 834.186890,183.412262 
	C834.569458,186.016037 834.500183,188.733459 834.236877,191.366257 
	C834.090332,192.831680 833.201599,195.410965 832.610962,195.421341 
	C830.831299,195.452606 828.519104,194.981415 827.338318,193.790405 
	C823.531799,189.950760 825.725098,182.024689 831.318237,179.963196 
z"/>
<path fill="#31A9E2" opacity="1.000000" stroke="none" 
	d="
M866.464233,186.423172 
	C867.401733,184.311981 867.916992,182.207825 869.246765,181.001816 
	C870.215088,180.123703 872.344116,180.052200 873.784668,180.377823 
	C874.454956,180.529327 875.020264,182.454910 875.106628,183.615494 
	C875.302002,186.241638 875.428894,188.927704 875.072571,191.519119 
	C874.865967,193.021835 873.636719,195.595200 872.922974,195.576477 
	C871.188477,195.531021 868.798767,194.695404 867.940186,193.362106 
	C866.795471,191.584396 866.851074,189.033737 866.464233,186.423172 
z"/>
<path fill="#31A9E2" opacity="1.000000" stroke="none" 
	d="
M796.035400,189.677216 
	C795.285645,193.822357 792.841248,196.013992 789.335754,194.844818 
	C787.348633,194.182068 785.315125,191.582809 784.674377,189.444626 
	C783.708740,186.222336 784.316406,182.723358 787.967896,180.969727 
	C792.590576,178.749664 795.856079,182.131409 796.035400,189.677216 
z"/>
<path fill="#31A9E2" opacity="1.000000" stroke="none" 
	d="
M759.329407,291.179565 
	C758.595947,291.596863 757.625000,291.771362 756.653992,291.945862 
	C756.631165,291.720306 756.608337,291.494751 756.585510,291.269196 
	C757.420959,291.158386 758.256470,291.047546 759.329407,291.179565 
z"/>
<path fill="#31A9E2" opacity="1.000000" stroke="none" 
	d="
M846.795593,291.673340 
	C847.522461,291.264130 848.482056,291.092987 849.441650,290.921844 
	C849.476318,291.159485 849.511047,291.397125 849.545715,291.634766 
	C848.706604,291.726959 847.867432,291.819183 846.795593,291.673340 
z"/>
<path fill="#31A9E2" opacity="1.000000" stroke="none" 
	d="
M735.694336,291.640381 
	C736.412537,291.225525 737.363953,291.053101 738.315369,290.880676 
	C738.352173,291.133820 738.388977,291.386963 738.425781,291.640106 
	C737.593018,291.721008 736.760315,291.801910 735.694336,291.640381 
z"/>
<path fill="#31A9E2" opacity="1.000000" stroke="none" 
	d="
M821.730591,290.858490 
	C822.999939,289.737213 823.847290,288.620880 825.514648,286.424103 
	C825.514648,291.703125 825.514648,295.344879 825.514648,298.970703 
	C823.754639,298.052826 822.251770,297.380249 820.868713,296.515808 
	C819.535156,295.682281 818.325378,294.650726 817.061218,293.706177 
	C818.477051,292.758606 819.892822,291.811035 821.730591,290.858490 
z"/>
</svg>